<svg xmlns="http://www.w3.org/2000/svg" width="1400" height="1900" viewBox="0 0 1400 1900"><rect width="1400" height="1900" fill="#f6f1e8"/><rect x="8" y="8" width="1384" height="1884" rx="16" fill="#fffaf0" stroke="#1d2430" stroke-width="3"/><text x="1360" y="70" direction="rtl" text-anchor="start" font-family="Arial, 'DejaVu Sans', sans-serif" font-size="43" font-weight="900" fill="#181c22" >טיול חברים 40 - שוויץ, היער השחור ומינכן</text><text x="1360" y="118" direction="rtl" text-anchor="start" font-family="Arial, 'DejaVu Sans', sans-serif" font-size="27" font-weight="500" fill="#303844" >7-14 באוקטובר 2026 | 8 ימים | מבוסס על מקומות ולו״ז ממסד הנתונים</text><rect x="28" y="155" width="1344" height="735" rx="10" fill="#e7ecd9" stroke="#223047" stroke-width="2"/><path d="M60 700 C230 560 230 330 390 260 S680 250 815 160 S1080 180 1330 70" transform="translate(28,155)" fill="none" stroke="#bfcba7" stroke-width="90" stroke-linecap="round" opacity="0.55"/><path d="M110 150 C300 95 560 120 680 260 S910 465 1270 390" transform="translate(28,155)" fill="none" stroke="#cdd9bd" stroke-width="70" stroke-linecap="round" opacity="0.5"/><path d="M20 610 C120 550 185 515 240 500 C310 482 390 505 470 575 C560 655 650 665 760 610" transform="translate(28,155)" fill="none" stroke="#9fc6d8" stroke-width="42" stroke-linecap="round" opacity="0.8"/><path d="M1000 620 C1110 580 1200 610 1310 560" transform="translate(28,155)" fill="none" stroke="#9fc6d8" stroke-width="36" stroke-linecap="round" opacity="0.7"/><text x="120" y="800" font-family="Arial, sans-serif" font-size="34" font-weight="800" fill="#93ad91" opacity="0.75">SWITZERLAND</text><text x="748" y="525" font-family="Arial, sans-serif" font-size="46" font-weight="800" fill="#9ca88d" opacity="0.78">GERMANY</text><text x="233" y="377" font-family="Arial, sans-serif" font-size="36" font-weight="800" fill="#9ca88d" opacity="0.72">FRANCE</text><path d="M 186.0 779.7 L 306.9 660.3 L 367.1 244.6 L 168.2 438.3 L 359.3 446.8 L 964.7 788.4 L 1212.4 515.9 L 1266.2 434.2" fill="none" stroke="#ffffff" stroke-width="15" stroke-linecap="round" stroke-linejoin="round" opacity="0.95"/><path d="M 186.0 779.7 L 306.9 660.3 L 367.1 244.6 L 168.2 438.3 L 359.3 446.8 L 964.7 788.4 L 1212.4 515.9 L 1266.2 434.2" fill="none" stroke="#25384d" stroke-width="8" stroke-linecap="round" stroke-linejoin="round"/><rect x="188.44402135586716" y="684.0062870151828" width="116" height="34" rx="8" fill="#226f54" opacity="0.94"/><text x="246.44402135586716" y="707.0062870151828" text-anchor="middle" font-family="Arial, 'DejaVu Sans', sans-serif" font-size="16" font-weight="800" fill="#fff" >כ-0:40 שעות</text><rect x="278.9807810101788" y="416.4469693680805" width="116" height="34" rx="8" fill="#226f54" opacity="0.94"/><text x="336.9807810101788" y="439.4469693680805" text-anchor="middle" font-family="Arial, 'DejaVu Sans', sans-serif" font-size="16" font-weight="800" fill="#fff" >כ-1:35 שעות</text><rect x="209.66015446898427" y="305.4130757689006" width="116" height="34" rx="8" fill="#f08a24" opacity="0.94"/><text x="267.6601544689843" y="328.4130757689006" text-anchor="middle" font-family="Arial, 'DejaVu Sans', sans-serif" font-size="16" font-weight="800" fill="#fff" >כ-1:10 שעות</text><rect x="205.74766644901104" y="406.54320523259605" width="116" height="34" rx="8" fill="#f08a24" opacity="0.94"/><text x="263.74766644901104" y="429.54320523259605" text-anchor="middle" font-family="Arial, 'DejaVu Sans', sans-serif" font-size="16" font-weight="800" fill="#fff" >כ-0:50 שעות</text><rect x="603.9820162089495" y="581.5888144444566" width="116" height="34" rx="8" fill="#7a50a4" opacity="0.94"/><text x="661.9820162089495" y="604.5888144444566" text-anchor="middle" font-family="Arial, 'DejaVu Sans', sans-serif" font-size="16" font-weight="800" fill="#fff" >כ-3:00 שעות</text><rect x="1030.5347075244863" y="616.1397433319048" width="116" height="34" rx="8" fill="#7a50a4" opacity="0.94"/><text x="1088.5347075244863" y="639.1397433319048" text-anchor="middle" font-family="Arial, 'DejaVu Sans', sans-serif" font-size="16" font-weight="800" fill="#fff" >כ-1:30 שעות</text><rect x="1181.2845049510274" y="439.04383600512995" width="116" height="34" rx="8" fill="#333842" opacity="0.94"/><text x="1239.2845049510274" y="462.04383600512995" text-anchor="middle" font-family="Arial, 'DejaVu Sans', sans-serif" font-size="16" font-weight="800" fill="#fff" >כ-0:25 שעות</text><circle cx="167.32894641828284" cy="785.9804368040278" r="5.5" fill="#333842" opacity="0.72" stroke="#fff" stroke-width="1.5"/><circle cx="204.71078225465757" cy="773.3833728117647" r="5.5" fill="#333842" opacity="0.72" stroke="#fff" stroke-width="1.5"/><circle cx="246.61116312656023" cy="681.220778248492" r="5.5" fill="#226f54" opacity="0.72" stroke="#fff" stroke-width="1.5"/><circle cx="279.01880514691766" cy="682.6420813599758" r="5.5" fill="#7a50a4" opacity="0.72" stroke="#fff" stroke-width="1.5"/><circle cx="299.2634407528328" cy="664.2443554414039" r="5.5" fill="#226f54" opacity="0.72" stroke="#fff" stroke-width="1.5"/><circle cx="308.945661148454" cy="636.9934870562922" r="5.5" fill="#226f54" opacity="0.72" stroke="#fff" stroke-width="1.5"/><circle cx="248.94675997695398" cy="599.1187546819297" r="5.5" fill="#d97918" opacity="0.72" stroke="#fff" stroke-width="1.5"/><circle cx="217.94811108123704" cy="474.91906885548985" r="5.5" fill="#7a50a4" opacity="0.72" stroke="#fff" stroke-width="1.5"/><circle cx="327.0741226810066" cy="647.6824716227163" r="5.5" fill="#226f54" opacity="0.72" stroke="#fff" stroke-width="1.5"/><circle cx="448.55781033224537" cy="748.3927931455985" r="5.5" fill="#226f54" opacity="0.72" stroke="#fff" stroke-width="1.5"/><circle cx="344.89973896677566" cy="773.9875522238287" r="5.5" fill="#bd4a35" opacity="0.72" stroke="#fff" stroke-width="1.5"/><circle cx="347.41617053965814" cy="694.1053495889685" r="5.5" fill="#7a50a4" opacity="0.72" stroke="#fff" stroke-width="1.5"/><circle cx="427.99236473977356" cy="249.63024580581373" r="5.5" fill="#226f54" opacity="0.72" stroke="#fff" stroke-width="1.5"/><circle cx="350.7458421355867" cy="245.33154347728987" r="5.5" fill="#7a50a4" opacity="0.72" stroke="#fff" stroke-width="1.5"/><circle cx="350.2554253888998" cy="244.0756466318261" r="5.5" fill="#226f54" opacity="0.72" stroke="#fff" stroke-width="1.5"/><circle cx="350.7974649510278" cy="245.0524552894101" r="5.5" fill="#7a50a4" opacity="0.72" stroke="#fff" stroke-width="1.5"/><circle cx="355.6758210101786" cy="238.72645636411926" r="5.5" fill="#226f54" opacity="0.72" stroke="#fff" stroke-width="1.5"/><circle cx="225.37983483771856" cy="328.0346764858467" r="5.5" fill="#d97918" opacity="0.72" stroke="#fff" stroke-width="1.5"/><circle cx="223.13424236604575" cy="329.5696615191904" r="5.5" fill="#d97918" opacity="0.72" stroke="#fff" stroke-width="1.5"/><circle cx="124.12168235068197" cy="561.7710338356792" r="5.5" fill="#d97918" opacity="0.72" stroke="#fff" stroke-width="1.5"/><circle cx="100.27194161705403" cy="533.6761562557217" r="5.5" fill="#d97918" opacity="0.72" stroke="#fff" stroke-width="1.5"/><circle cx="349.11311572882653" cy="538.9400850820296" r="5.5" fill="#226f54" opacity="0.72" stroke="#fff" stroke-width="1.5"/><circle cx="352.65588630689473" cy="335.1979399747769" r="5.5" fill="#226f54" opacity="0.72" stroke="#fff" stroke-width="1.5"/><circle cx="338.898405991934" cy="525.3965400152695" r="5.5" fill="#d97918" opacity="0.72" stroke="#fff" stroke-width="1.5"/><circle cx="396.40622239293253" cy="387.75954869225154" r="5.5" fill="#226f8f" opacity="0.72" stroke="#fff" stroke-width="1.5"/><circle cx="1076.6758102554256" cy="786.4191169206847" r="5.5" fill="#7a50a4" opacity="0.72" stroke="#fff" stroke-width="1.5"/><circle cx="726.7030628000766" cy="806.2735436358807" r="5.5" fill="#d97918" opacity="0.72" stroke="#fff" stroke-width="1.5"/><circle cx="1033.7673132321875" cy="746.6204436084649" r="5.5" fill="#d97918" opacity="0.72" stroke="#fff" stroke-width="1.5"/><circle cx="999.4639523718074" cy="804.4382131976865" r="5.5" fill="#d97918" opacity="0.72" stroke="#fff" stroke-width="1.5"/><circle cx="986.8679854042638" cy="798.0191848764391" r="5.5" fill="#d97918" opacity="0.72" stroke="#fff" stroke-width="1.5"/><circle cx="1213.0252684463223" cy="533.8209565105336" r="5.5" fill="#bd4a35" opacity="0.72" stroke="#fff" stroke-width="1.5"/><circle cx="1216.2334457461113" cy="523.2152332534952" r="5.5" fill="#bd4a35" opacity="0.72" stroke="#fff" stroke-width="1.5"/><circle cx="1213.6855758786253" cy="534.6356149309614" r="5.5" fill="#bd4a35" opacity="0.72" stroke="#fff" stroke-width="1.5"/><circle cx="1216.1030723257159" cy="533.7366718777937" r="5.5" fill="#bd4a35" opacity="0.72" stroke="#fff" stroke-width="1.5"/><circle cx="1204.8688636066836" cy="533.8948218509265" r="5.5" fill="#bd4a35" opacity="0.72" stroke="#fff" stroke-width="1.5"/><circle cx="1215.9026725561744" cy="519.6770927516408" r="5.5" fill="#bd4a35" opacity="0.72" stroke="#fff" stroke-width="1.5"/><circle cx="1213.3728190512772" cy="526.6073176036908" r="5.5" fill="#7a50a4" opacity="0.72" stroke="#fff" stroke-width="1.5"/><circle cx="1207.6320006145575" cy="516.2340282924582" r="5.5" fill="#d97918" opacity="0.72" stroke="#fff" stroke-width="1.5"/><circle cx="1214.641320683695" cy="538.2482254642764" r="5.5" fill="#d97918" opacity="0.72" stroke="#fff" stroke-width="1.5"/><circle cx="1225.2850676397159" cy="496.88512331489784" r="5.5" fill="#7a50a4" opacity="0.72" stroke="#fff" stroke-width="1.5"/><circle cx="1212.7374454388325" cy="535.6809862533596" r="5.5" fill="#996515" opacity="0.72" stroke="#fff" stroke-width="1.5"/><circle cx="1214.261480007682" cy="535.8040641442154" r="5.5" fill="#7a50a4" opacity="0.72" stroke="#fff" stroke-width="1.5"/><circle cx="1212.5754530439795" cy="534.7491573087257" r="5.5" fill="#d97918" opacity="0.72" stroke="#fff" stroke-width="1.5"/><circle cx="1176.725601690033" cy="516.5081859223505" r="5.5" fill="#bd4a35" opacity="0.72" stroke="#fff" stroke-width="1.5"/><circle cx="1220.3456417898983" cy="522.2650310031627" r="5.5" fill="#226f54" opacity="0.72" stroke="#fff" stroke-width="1.5"/><circle cx="1154.6688762051085" cy="488.85924475192735" r="5.5" fill="#7a50a4" opacity="0.72" stroke="#fff" stroke-width="1.5"/><circle cx="1299.728058382946" cy="457.0199339845726" r="5.5" fill="#7a50a4" opacity="0.72" stroke="#fff" stroke-width="1.5"/><circle cx="1193.9529095448436" cy="525.0244224314297" r="5.5" fill="#d97918" opacity="0.72" stroke="#fff" stroke-width="1.5"/><circle cx="1213.5695794123299" cy="533.4435827658203" r="5.5" fill="#d97918" opacity="0.72" stroke="#fff" stroke-width="1.5"/><circle cx="1211.1433070866144" cy="529.4898334375156" r="5.5" fill="#d97918" opacity="0.72" stroke="#fff" stroke-width="1.5"/><circle cx="1203.0643364701366" cy="531.8155683365169" r="5.5" fill="#bd4a35" opacity="0.72" stroke="#fff" stroke-width="1.5"/><circle cx="1205.774534280776" cy="538.0485378658477" r="5.5" fill="#d97918" opacity="0.72" stroke="#fff" stroke-width="1.5"/><circle cx="1215.6086806222393" cy="531.4899654506587" r="5.5" fill="#226f54" opacity="0.72" stroke="#fff" stroke-width="1.5"/><circle cx="1213.6728250432116" cy="535.3506853830036" r="5.5" fill="#bd4a35" opacity="0.72" stroke="#fff" stroke-width="1.5"/><circle cx="1215.7635490685616" cy="539.1183759193884" r="5.5" fill="#bd4a35" opacity="0.72" stroke="#fff" stroke-width="1.5"/><circle cx="1154.6688762051085" cy="488.85924475192735" r="5.5" fill="#7a50a4" opacity="0.72" stroke="#fff" stroke-width="1.5"/><circle cx="1242.5003990013442" cy="445.40260907586753" r="5.5" fill="#7a50a4" opacity="0.72" stroke="#fff" stroke-width="1.5"/><circle cx="1154.6688762051085" cy="488.85924475192735" r="5.5" fill="#7a50a4" opacity="0.72" stroke="#fff" stroke-width="1.5"/><circle cx="1272.5327720376417" cy="497.61521801439125" r="5.5" fill="#7a50a4" opacity="0.72" stroke="#fff" stroke-width="1.5"/><circle cx="1242.5003990013442" cy="445.40260907586753" r="5.5" fill="#7a50a4" opacity="0.72" stroke="#fff" stroke-width="1.5"/><circle cx="1266.1952196658347" cy="434.162285794281" r="5.5" fill="#333842" opacity="0.72" stroke="#fff" stroke-width="1.5"/><circle cx="186.01986433647022" cy="779.6819048078963" r="16" fill="#fff" stroke="#1d2430" stroke-width="4"/><circle cx="186.01986433647022" cy="779.6819048078963" r="9" fill="#226f54"/><rect x="182.01986433647022" y="773.6819048078963" width="168" height="42" rx="8" fill="#fffdf8" stroke="#226f54" stroke-width="2"/><text x="266.0198643364702" y="800.6819048078963" text-anchor="middle" font-family="Arial, 'DejaVu Sans', sans-serif" font-size="18" font-weight="900" fill="#226f54" >07/10 · יום 1</text><circle cx="306.8681783752641" cy="660.3306692224692" r="16" fill="#fff" stroke="#1d2430" stroke-width="4"/><circle cx="306.8681783752641" cy="660.3306692224692" r="9" fill="#226f54"/><rect x="147.8681783752641" y="608.3306692224692" width="168" height="42" rx="8" fill="#fffdf8" stroke="#226f54" stroke-width="2"/><text x="231.8681783752641" y="635.3306692224692" text-anchor="middle" font-family="Arial, 'DejaVu Sans', sans-serif" font-size="18" font-weight="900" fill="#226f54" >08/10 · יום 2</text><circle cx="367.09338364509347" cy="244.5632695136918" r="16" fill="#fff" stroke="#1d2430" stroke-width="4"/><circle cx="367.09338364509347" cy="244.5632695136918" r="9" fill="#226f54"/><rect x="363.09338364509347" y="238.5632695136918" width="168" height="42" rx="8" fill="#fffdf8" stroke="#226f54" stroke-width="2"/><text x="447.09338364509347" y="265.5632695136918" text-anchor="middle" font-family="Arial, 'DejaVu Sans', sans-serif" font-size="18" font-weight="900" fill="#226f54" >09/10 · יום 3</text><circle cx="168.22692529287508" cy="438.26288202410944" r="16" fill="#fff" stroke="#1d2430" stroke-width="4"/><circle cx="168.22692529287508" cy="438.26288202410944" r="9" fill="#f08a24"/><rect x="31" y="386.26288202410944" width="168" height="42" rx="8" fill="#fffdf8" stroke="#f08a24" stroke-width="2"/><text x="115" y="413.26288202410944" text-anchor="middle" font-family="Arial, 'DejaVu Sans', sans-serif" font-size="18" font-weight="900" fill="#f08a24" >10/10 · יום 4</text><circle cx="359.26840760514693" cy="446.82352844108266" r="16" fill="#fff" stroke="#1d2430" stroke-width="4"/><circle cx="359.26840760514693" cy="446.82352844108266" r="9" fill="#f08a24"/><rect x="355.26840760514693" y="440.82352844108266" width="168" height="42" rx="8" fill="#fffdf8" stroke="#f08a24" stroke-width="2"/><text x="439.26840760514693" y="467.82352844108266" text-anchor="middle" font-family="Arial, 'DejaVu Sans', sans-serif" font-size="18" font-weight="900" fill="#f08a24" >11/10 · יום 5</text><circle cx="964.695624812752" cy="788.3541004478305" r="16" fill="#fff" stroke="#1d2430" stroke-width="4"/><circle cx="964.695624812752" cy="788.3541004478305" r="9" fill="#7a50a4"/><rect x="805.695624812752" y="736.3541004478305" width="168" height="42" rx="8" fill="#fffdf8" stroke="#7a50a4" stroke-width="2"/><text x="889.695624812752" y="763.3541004478305" text-anchor="middle" font-family="Arial, 'DejaVu Sans', sans-serif" font-size="18" font-weight="900" fill="#7a50a4" >12/10 · יום 6</text><circle cx="1212.3737902362204" cy="515.925386215979" r="16" fill="#fff" stroke="#1d2430" stroke-width="4"/><circle cx="1212.3737902362204" cy="515.925386215979" r="9" fill="#7a50a4"/><rect x="1208.3737902362204" y="509.92538621597896" width="168" height="42" rx="8" fill="#fffdf8" stroke="#7a50a4" stroke-width="2"/><text x="1292.3737902362204" y="536.925386215979" text-anchor="middle" font-family="Arial, 'DejaVu Sans', sans-serif" font-size="18" font-weight="900" fill="#7a50a4" >13/10 · יום 7</text><circle cx="1266.1952196658347" cy="434.162285794281" r="16" fill="#fff" stroke="#1d2430" stroke-width="4"/><circle cx="1266.1952196658347" cy="434.162285794281" r="9" fill="#333842"/><rect x="1107.1952196658347" y="382.162285794281" width="168" height="42" rx="8" fill="#fffdf8" stroke="#333842" stroke-width="2"/><text x="1191.1952196658347" y="409.162285794281" text-anchor="middle" font-family="Arial, 'DejaVu Sans', sans-serif" font-size="18" font-weight="900" fill="#333842" >14/10 · יום 8</text><rect x="48" y="175" width="250" height="230" rx="10" fill="#fffdf8" stroke="#223047" stroke-width="2"/><text x="278" y="210" direction="rtl" text-anchor="start" font-family="Arial, 'DejaVu Sans', sans-serif" font-size="25" font-weight="900" fill="#1d2430" >מקרא</text><circle cx="258" cy="236" r="7" fill="#333842"/><text x="240" y="243" direction="rtl" text-anchor="start" font-family="Arial, 'DejaVu Sans', sans-serif" font-size="17" font-weight="700" fill="#303844" >תחבורה</text><circle cx="258" cy="264" r="7" fill="#226f54"/><text x="240" y="271" direction="rtl" text-anchor="start" font-family="Arial, 'DejaVu Sans', sans-serif" font-size="17" font-weight="700" fill="#303844" >טבע</text><circle cx="258" cy="292" r="7" fill="#7a50a4"/><text x="240" y="299" direction="rtl" text-anchor="start" font-family="Arial, 'DejaVu Sans', sans-serif" font-size="17" font-weight="700" fill="#303844" >אטרקציה</text><circle cx="258" cy="320" r="7" fill="#d97918"/><text x="240" y="327" direction="rtl" text-anchor="start" font-family="Arial, 'DejaVu Sans', sans-serif" font-size="17" font-weight="700" fill="#303844" >תרבות</text><circle cx="258" cy="348" r="7" fill="#bd4a35"/><text x="240" y="355" direction="rtl" text-anchor="start" font-family="Arial, 'DejaVu Sans', sans-serif" font-size="17" font-weight="700" fill="#303844" >אוכל</text><circle cx="258" cy="376" r="7" fill="#226f8f"/><text x="240" y="383" direction="rtl" text-anchor="start" font-family="Arial, 'DejaVu Sans', sans-serif" font-size="17" font-weight="700" fill="#303844" >לינה</text><path d="M70 372 L120 372" stroke="#25384d" stroke-width="6" stroke-linecap="round"/><text x="258" y="377" direction="rtl" text-anchor="start" font-family="Arial, 'DejaVu Sans', sans-serif" font-size="17" font-weight="700" fill="#303844" >מסלול משוער</text><rect x="28" y="910" width="325.5" height="330" rx="8" fill="#fffdf8" stroke="#226f54" stroke-width="2"/><rect x="28" y="910" width="325.5" height="54" rx="8" fill="#226f54"/><rect x="28" y="952" width="325.5" height="16" fill="#226f54"/><text x="335.5" y="946" direction="rtl" text-anchor="start" font-family="Arial, 'DejaVu Sans', sans-serif" font-size="24" font-weight="800" fill="#fff" >רביעי 07/10</text><text x="74" y="946" text-anchor="middle" font-family="Arial, 'DejaVu Sans', sans-serif" font-size="22" font-weight="800" fill="#fff" >יום 1</text><text x="335.5" y="996" direction="rtl" text-anchor="start" font-family="Arial, 'DejaVu Sans', sans-serif" font-size="25" font-weight="800" fill="#1d2430" >נחיתה + מפלי הריין</text><text x="331.5" y="1034" direction="rtl" text-anchor="start" font-family="Arial, 'DejaVu Sans', sans-serif" font-size="18" font-weight="600" fill="#242b36" >07:00 טיסה</text><text x="331.5" y="1064" text-anchor="end" font-family="Arial, 'DejaVu Sans', sans-serif" font-size="18" font-weight="600" fill="#242b36" >12:00 Rhine Falls –...</text><line x1="46" y1="1136" x2="335.5" y2="1136" stroke="#eadfce"/><text x="335.5" y="1166" direction="rtl" text-anchor="start" font-family="Arial, 'DejaVu Sans', sans-serif" font-size="17" font-weight="800" fill="#226f54" >קטגוריות</text><rect x="237.5" y="1184" width="98" height="30" rx="15" fill="#333842" opacity="0.12"/><text x="325.5" y="1205" direction="rtl" text-anchor="start" font-family="Arial, 'DejaVu Sans', sans-serif" font-size="15" font-weight="700" fill="#333842" >תחבורה</text><rect x="367.5" y="910" width="325.5" height="330" rx="8" fill="#fffdf8" stroke="#226f54" stroke-width="2"/><rect x="367.5" y="910" width="325.5" height="54" rx="8" fill="#226f54"/><rect x="367.5" y="952" width="325.5" height="16" fill="#226f54"/><text x="675" y="946" direction="rtl" text-anchor="start" font-family="Arial, 'DejaVu Sans', sans-serif" font-size="24" font-weight="800" fill="#fff" >חמישי 08/10</text><text x="413.5" y="946" text-anchor="middle" font-family="Arial, 'DejaVu Sans', sans-serif" font-size="22" font-weight="800" fill="#fff" >יום 2</text><text x="675" y="996" direction="rtl" text-anchor="start" font-family="Arial, 'DejaVu Sans', sans-serif" font-size="25" font-weight="800" fill="#1d2430" >Europa Park / יער שחור</text><text x="671" y="1034" text-anchor="end" font-family="Arial, 'DejaVu Sans', sans-serif" font-size="18" font-weight="600" fill="#242b36" >09:00 Europa Park</text><line x1="385.5" y1="1136" x2="675" y2="1136" stroke="#eadfce"/><text x="675" y="1166" direction="rtl" text-anchor="start" font-family="Arial, 'DejaVu Sans', sans-serif" font-size="17" font-weight="800" fill="#226f54" >קטגוריות</text><rect x="616" y="1184" width="59" height="30" rx="15" fill="#226f54" opacity="0.12"/><text x="665" y="1205" direction="rtl" text-anchor="start" font-family="Arial, 'DejaVu Sans', sans-serif" font-size="15" font-weight="700" fill="#226f54" >טבע</text><rect x="497" y="1184" width="111" height="30" rx="15" fill="#7a50a4" opacity="0.12"/><text x="598" y="1205" direction="rtl" text-anchor="start" font-family="Arial, 'DejaVu Sans', sans-serif" font-size="15" font-weight="700" fill="#7a50a4" >אטרקציה</text><rect x="404" y="1184" width="85" height="30" rx="15" fill="#d97918" opacity="0.12"/><text x="479" y="1205" direction="rtl" text-anchor="start" font-family="Arial, 'DejaVu Sans', sans-serif" font-size="15" font-weight="700" fill="#d97918" >תרבות</text><rect x="707" y="910" width="325.5" height="330" rx="8" fill="#fffdf8" stroke="#226f54" stroke-width="2"/><rect x="707" y="910" width="325.5" height="54" rx="8" fill="#226f54"/><rect x="707" y="952" width="325.5" height="16" fill="#226f54"/><text x="1014.5" y="946" direction="rtl" text-anchor="start" font-family="Arial, 'DejaVu Sans', sans-serif" font-size="24" font-weight="800" fill="#fff" >שישי 09/10</text><text x="753" y="946" text-anchor="middle" font-family="Arial, 'DejaVu Sans', sans-serif" font-size="22" font-weight="800" fill="#fff" >יום 3</text><text x="1014.5" y="996" direction="rtl" text-anchor="start" font-family="Arial, 'DejaVu Sans', sans-serif" font-size="25" font-weight="800" fill="#1d2430" >רוואנה + Hasenhorn</text><text x="1010.5" y="1034" text-anchor="end" font-family="Arial, 'DejaVu Sans', sans-serif" font-size="18" font-weight="600" fill="#242b36" >09:00 Ravenna Gorge</text><text x="1010.5" y="1064" direction="rtl" text-anchor="start" font-family="Arial, 'DejaVu Sans', sans-serif" font-size="18" font-weight="600" fill="#242b36" >15:00 מגלשת Hasenhorn</text><text x="1010.5" y="1094" text-anchor="end" font-family="Arial, 'DejaVu Sans', sans-serif" font-size="18" font-weight="600" fill="#242b36" >19:00 Traumatica Halloween...</text><line x1="725" y1="1136" x2="1014.5" y2="1136" stroke="#eadfce"/><text x="1014.5" y="1166" direction="rtl" text-anchor="start" font-family="Arial, 'DejaVu Sans', sans-serif" font-size="17" font-weight="800" fill="#226f54" >קטגוריות</text><rect x="955.5" y="1184" width="59" height="30" rx="15" fill="#226f54" opacity="0.12"/><text x="1004.5" y="1205" direction="rtl" text-anchor="start" font-family="Arial, 'DejaVu Sans', sans-serif" font-size="15" font-weight="700" fill="#226f54" >טבע</text><rect x="836.5" y="1184" width="111" height="30" rx="15" fill="#7a50a4" opacity="0.12"/><text x="937.5" y="1205" direction="rtl" text-anchor="start" font-family="Arial, 'DejaVu Sans', sans-serif" font-size="15" font-weight="700" fill="#7a50a4" >אטרקציה</text><rect x="1046.5" y="910" width="325.5" height="330" rx="8" fill="#fffdf8" stroke="#f08a24" stroke-width="2"/><rect x="1046.5" y="910" width="325.5" height="54" rx="8" fill="#f08a24"/><rect x="1046.5" y="952" width="325.5" height="16" fill="#f08a24"/><text x="1354" y="946" direction="rtl" text-anchor="start" font-family="Arial, 'DejaVu Sans', sans-serif" font-size="24" font-weight="800" fill="#fff" >שבת 10/10</text><text x="1092.5" y="946" text-anchor="middle" font-family="Arial, 'DejaVu Sans', sans-serif" font-size="22" font-weight="800" fill="#fff" >יום 4</text><text x="1354" y="996" direction="rtl" text-anchor="start" font-family="Arial, 'DejaVu Sans', sans-serif" font-size="25" font-weight="800" fill="#1d2430" >טריברג + Mehliskopf</text><text x="1350" y="1034" direction="rtl" text-anchor="start" font-family="Arial, 'DejaVu Sans', sans-serif" font-size="18" font-weight="600" fill="#242b36" >09:00 מפלי Triberg + שעון...</text><text x="1350" y="1064" text-anchor="end" font-family="Arial, 'DejaVu Sans', sans-serif" font-size="18" font-weight="600" fill="#242b36" >14:15 Mehliskopf Alpine...</text><line x1="1064.5" y1="1136" x2="1354" y2="1136" stroke="#eadfce"/><text x="1354" y="1166" direction="rtl" text-anchor="start" font-family="Arial, 'DejaVu Sans', sans-serif" font-size="17" font-weight="800" fill="#f08a24" >קטגוריות</text><rect x="1269" y="1184" width="85" height="30" rx="15" fill="#d97918" opacity="0.12"/><text x="1344" y="1205" direction="rtl" text-anchor="start" font-family="Arial, 'DejaVu Sans', sans-serif" font-size="15" font-weight="700" fill="#d97918" >תרבות</text><rect x="28" y="1254" width="325.5" height="330" rx="8" fill="#fffdf8" stroke="#f08a24" stroke-width="2"/><rect x="28" y="1254" width="325.5" height="54" rx="8" fill="#f08a24"/><rect x="28" y="1296" width="325.5" height="16" fill="#f08a24"/><text x="335.5" y="1290" direction="rtl" text-anchor="start" font-family="Arial, 'DejaVu Sans', sans-serif" font-size="24" font-weight="800" fill="#fff" >ראשון 11/10</text><text x="74" y="1290" text-anchor="middle" font-family="Arial, 'DejaVu Sans', sans-serif" font-size="22" font-weight="800" fill="#fff" >יום 5</text><text x="335.5" y="1340" direction="rtl" text-anchor="start" font-family="Arial, 'DejaVu Sans', sans-serif" font-size="25" font-weight="800" fill="#1d2430" >מעבר ולינת ביניים</text><text x="331.5" y="1378" direction="rtl" text-anchor="start" font-family="Arial, 'DejaVu Sans', sans-serif" font-size="18" font-weight="600" fill="#242b36" >00:00 מלון</text><line x1="46" y1="1480" x2="335.5" y2="1480" stroke="#eadfce"/><text x="335.5" y="1510" direction="rtl" text-anchor="start" font-family="Arial, 'DejaVu Sans', sans-serif" font-size="17" font-weight="800" fill="#f08a24" >קטגוריות</text><rect x="276.5" y="1528" width="59" height="30" rx="15" fill="#226f54" opacity="0.12"/><text x="325.5" y="1549" direction="rtl" text-anchor="start" font-family="Arial, 'DejaVu Sans', sans-serif" font-size="15" font-weight="700" fill="#226f54" >טבע</text><rect x="183.5" y="1528" width="85" height="30" rx="15" fill="#d97918" opacity="0.12"/><text x="258.5" y="1549" direction="rtl" text-anchor="start" font-family="Arial, 'DejaVu Sans', sans-serif" font-size="15" font-weight="700" fill="#d97918" >תרבות</text><rect x="103.5" y="1528" width="72" height="30" rx="15" fill="#226f8f" opacity="0.12"/><text x="165.5" y="1549" direction="rtl" text-anchor="start" font-family="Arial, 'DejaVu Sans', sans-serif" font-size="15" font-weight="700" fill="#226f8f" >לינה</text><rect x="367.5" y="1254" width="325.5" height="330" rx="8" fill="#fffdf8" stroke="#7a50a4" stroke-width="2"/><rect x="367.5" y="1254" width="325.5" height="54" rx="8" fill="#7a50a4"/><rect x="367.5" y="1296" width="325.5" height="16" fill="#7a50a4"/><text x="675" y="1290" direction="rtl" text-anchor="start" font-family="Arial, 'DejaVu Sans', sans-serif" font-size="24" font-weight="800" fill="#fff" >שני 12/10</text><text x="413.5" y="1290" text-anchor="middle" font-family="Arial, 'DejaVu Sans', sans-serif" font-size="22" font-weight="800" fill="#fff" >יום 6</text><text x="675" y="1340" direction="rtl" text-anchor="start" font-family="Arial, 'DejaVu Sans', sans-serif" font-size="25" font-weight="800" fill="#1d2430" >אלפים בוואריים + מינכן</text><text x="671" y="1378" direction="rtl" text-anchor="start" font-family="Arial, 'DejaVu Sans', sans-serif" font-size="18" font-weight="600" fill="#242b36" >20:00 חדר בריחה – Exit the...</text><line x1="385.5" y1="1480" x2="675" y2="1480" stroke="#eadfce"/><text x="675" y="1510" direction="rtl" text-anchor="start" font-family="Arial, 'DejaVu Sans', sans-serif" font-size="17" font-weight="800" fill="#7a50a4" >קטגוריות</text><rect x="564" y="1528" width="111" height="30" rx="15" fill="#7a50a4" opacity="0.12"/><text x="665" y="1549" direction="rtl" text-anchor="start" font-family="Arial, 'DejaVu Sans', sans-serif" font-size="15" font-weight="700" fill="#7a50a4" >אטרקציה</text><rect x="471" y="1528" width="85" height="30" rx="15" fill="#d97918" opacity="0.12"/><text x="546" y="1549" direction="rtl" text-anchor="start" font-family="Arial, 'DejaVu Sans', sans-serif" font-size="15" font-weight="700" fill="#d97918" >תרבות</text><rect x="707" y="1254" width="325.5" height="330" rx="8" fill="#fffdf8" stroke="#7a50a4" stroke-width="2"/><rect x="707" y="1254" width="325.5" height="54" rx="8" fill="#7a50a4"/><rect x="707" y="1296" width="325.5" height="16" fill="#7a50a4"/><text x="1014.5" y="1290" direction="rtl" text-anchor="start" font-family="Arial, 'DejaVu Sans', sans-serif" font-size="24" font-weight="800" fill="#fff" >שלישי 13/10</text><text x="753" y="1290" text-anchor="middle" font-family="Arial, 'DejaVu Sans', sans-serif" font-size="22" font-weight="800" fill="#fff" >יום 7</text><text x="1014.5" y="1340" direction="rtl" text-anchor="start" font-family="Arial, 'DejaVu Sans', sans-serif" font-size="25" font-weight="800" fill="#1d2430" >מינכן - אטרקציות</text><text x="1010.5" y="1378" text-anchor="end" font-family="Arial, 'DejaVu Sans', sans-serif" font-size="18" font-weight="600" fill="#242b36" >09:00 BMW Welt + Museum</text><text x="1010.5" y="1408" text-anchor="end" font-family="Arial, 'DejaVu Sans', sans-serif" font-size="18" font-weight="600" fill="#242b36" >13:30 F1 Simulator</text><text x="1010.5" y="1438" text-anchor="end" font-family="Arial, 'DejaVu Sans', sans-serif" font-size="18" font-weight="600" fill="#242b36" >16:00 TeamSport E-Karting...</text><line x1="725" y1="1480" x2="1014.5" y2="1480" stroke="#eadfce"/><text x="1014.5" y="1510" direction="rtl" text-anchor="start" font-family="Arial, 'DejaVu Sans', sans-serif" font-size="17" font-weight="800" fill="#7a50a4" >קטגוריות</text><rect x="942.5" y="1528" width="72" height="30" rx="15" fill="#bd4a35" opacity="0.12"/><text x="1004.5" y="1549" direction="rtl" text-anchor="start" font-family="Arial, 'DejaVu Sans', sans-serif" font-size="15" font-weight="700" fill="#bd4a35" >אוכל</text><rect x="823.5" y="1528" width="111" height="30" rx="15" fill="#7a50a4" opacity="0.12"/><text x="924.5" y="1549" direction="rtl" text-anchor="start" font-family="Arial, 'DejaVu Sans', sans-serif" font-size="15" font-weight="700" fill="#7a50a4" >אטרקציה</text><rect x="730.5" y="1528" width="85" height="30" rx="15" fill="#d97918" opacity="0.12"/><text x="805.5" y="1549" direction="rtl" text-anchor="start" font-family="Arial, 'DejaVu Sans', sans-serif" font-size="15" font-weight="700" fill="#d97918" >תרבות</text><rect x="1046.5" y="1254" width="325.5" height="330" rx="8" fill="#fffdf8" stroke="#333842" stroke-width="2"/><rect x="1046.5" y="1254" width="325.5" height="54" rx="8" fill="#333842"/><rect x="1046.5" y="1296" width="325.5" height="16" fill="#333842"/><text x="1354" y="1290" direction="rtl" text-anchor="start" font-family="Arial, 'DejaVu Sans', sans-serif" font-size="24" font-weight="800" fill="#fff" >רביעי 14/10</text><text x="1092.5" y="1290" text-anchor="middle" font-family="Arial, 'DejaVu Sans', sans-serif" font-size="22" font-weight="800" fill="#fff" >יום 8</text><text x="1354" y="1340" direction="rtl" text-anchor="start" font-family="Arial, 'DejaVu Sans', sans-serif" font-size="25" font-weight="800" fill="#1d2430" >חזרה ממינכן</text><text x="1350" y="1378" direction="rtl" text-anchor="start" font-family="Arial, 'DejaVu Sans', sans-serif" font-size="18" font-weight="600" fill="#242b36" >20:00 טיסה</text><line x1="1064.5" y1="1480" x2="1354" y2="1480" stroke="#eadfce"/><text x="1354" y="1510" direction="rtl" text-anchor="start" font-family="Arial, 'DejaVu Sans', sans-serif" font-size="17" font-weight="800" fill="#333842" >קטגוריות</text><rect x="1256" y="1528" width="98" height="30" rx="15" fill="#333842" opacity="0.12"/><text x="1344" y="1549" direction="rtl" text-anchor="start" font-family="Arial, 'DejaVu Sans', sans-serif" font-size="15" font-weight="700" fill="#333842" >תחבורה</text><rect x="28" y="1622" width="1344" height="220" rx="8" fill="#fffdf8" stroke="#9aa7b1" stroke-width="2"/><text x="1348" y="1664" direction="rtl" text-anchor="start" font-family="Arial, 'DejaVu Sans', sans-serif" font-size="24" font-weight="900" fill="#1d2430" >דגשים מהתכנון</text><circle cx="1338" cy="1698" r="4.5" fill="#226f54"/><text x="1322" y="1704" direction="rtl" text-anchor="start" font-family="Arial, 'DejaVu Sans', sans-serif" font-size="18" font-weight="600" fill="#303844" >סה״כ 61 מקומות ו-14 אירועי לו״ז ממסד הנתונים</text><circle cx="1338" cy="1728" r="4.5" fill="#226f54"/><text x="1322" y="1734" direction="rtl" text-anchor="start" font-family="Arial, 'DejaVu Sans', sans-serif" font-size="18" font-weight="600" fill="#303844" >ימים 1-3: נחיתה, מפלי הריין, פארק אירופה ורוואנה</text><circle cx="1338" cy="1758" r="4.5" fill="#226f54"/><text x="1322" y="1764" direction="rtl" text-anchor="start" font-family="Arial, 'DejaVu Sans', sans-serif" font-size="18" font-weight="600" fill="#303844" >ימים 4-5: טריברג, Mehliskopf ולינת ביניים באזור Freudenstadt</text><circle cx="1338" cy="1788" r="4.5" fill="#226f54"/><text x="1322" y="1794" direction="rtl" text-anchor="start" font-family="Arial, 'DejaVu Sans', sans-serif" font-size="18" font-weight="600" fill="#303844" >ימים 6-8: נוישוונשטיין, מינכן, BMW, סימולטור, קארטינג וטיסה חזרה</text><circle cx="1338" cy="1818" r="4.5" fill="#226f54"/><text x="1322" y="1824" direction="rtl" text-anchor="start" font-family="Arial, 'DejaVu Sans', sans-serif" font-size="18" font-weight="600" fill="#303844" >זמני הנסיעה על המפה הם הערכה גיאוגרפית, לא ניווט בזמן אמת</text><text x="1364" y="1872" direction="rtl" text-anchor="start" font-family="Arial, 'DejaVu Sans', sans-serif" font-size="16" fill="#66717d">נוצר אוטומטית מתוך TripPlace + PlannerEvent</text></svg>